<svg id="Layer_1" data-name="Layer 1" xmlns="http://www.w3.org/2000/svg" viewBox="0 0 1080 647.6"><path d="M97.54,415.5,77.63,426.88l-1.89-1.42Q89,410.78,89,386.59v-245q0-23.7-4.27-40.29A69.83,69.83,0,0,0,69.1,71.86L71,70a236.88,236.88,0,0,1,37.91,15.88q20.86,10.66,33.66,21.56,3.3-1.89,28-16.11v1.89q-15.17,16.61-15.16,38.4v3.31l46-72.52V75.66q28,18,47.4,34.83t19.43,35.32v80.1q-51.66,24.65-76.31,40.29A336.74,336.74,0,0,1,245,293.45q25.11,15.89,25.12,30.1v99.06q0,37.45,11.38,48.35l-1.9,1.9a241.54,241.54,0,0,1-51.43-35.55q-24.42-21.8-24.41-38.39V301.75q0-14.22-28-24.18Q161,289,155.37,298V417.4a93.54,93.54,0,0,0,5.21,32Q165.79,463.87,172,471l-1.89,1.9Q115.07,440.15,97.54,415.5ZM187.6,255.3q13.26-9.48,14.22-10.43v-82q0-9-6.88-16.35t-20.14-17.3l-19.43,32.7v118Q162,272.37,187.6,255.3Z"/><path d="M323.15,541.11q46.94-40.29,65.41-71.1l1.9,1.42a102.16,102.16,0,0,0-6.64,36.5q0,21.33,9,30.81l9,10q19.92-14.21,19.91-42.65V367.63L371.5,472.86,305.14,406.5l.47-170.64q0-12.31,5.46-21.33a55.67,55.67,0,0,1,14.22-15.64,300,300,0,0,1,25.35-16.59Q372,169.51,385.24,160l1.9,1.89Q372,182.31,372,209.32V373.79l22.75,20.39,27-53.56v-109q0-15.16,9.72-24.41t32.94-23.46a376.47,376.47,0,0,0,37-23.7l1.9,1.89q-15.18,20.39-15.17,47.4V499.87q-24.64,9-63,42.9t-58.3,62.8Z"/><path d="M558.25,442.28q-25.59-19.18-25.6-41.94V200.79a85.69,85.69,0,0,0-3.08-24.17A29.82,29.82,0,0,0,517.49,160v-1.9q10.89-3.31,27-14.46t31-30.09A120.26,120.26,0,0,0,597.12,70L599,71.86V176.62L640.25,160l1.89,1.89Q626,172.84,612.52,191.07T599,235.39v165q0,29.85,4.5,43.37T621.29,471l-1.9,1.9Q583.84,461.48,558.25,442.28Z"/><path d="M648.78,407.92q-11.37-8.54-11.37-17.06V245.34a29.35,29.35,0,0,1,5-16.82,39.87,39.87,0,0,1,13-12.09L748.79,160l55.93,91.48-101,87.21v25.59q0,7.59,10.42,15.17L763,416l31.76-34.6,8.53,10.9L736,472.86ZM750.69,275.2,708,202.68a6.73,6.73,0,0,0-4.26,6.64V315.49Z"/><path d="M809.46,471q13.26-18,13.27-47.4V138.7q0-14.22,11.62-25.6t39.1-29.39q5.2-3.78,13-8.76t17.78-12.57v2.37q-15.18,20.4-15.17,46.93V400.81a32,32,0,0,1-10.19,23.7q-10.2,10-35.31,26.54-19.9,12.81-32.23,21.81Z"/><path d="M916.1,471q13.27-18,13.28-47.4V138.7q0-14.22,11.61-25.6t39.1-29.39q5.22-3.78,13-8.76t17.77-12.57v2.37q-15.18,20.4-15.17,46.93V400.81a32,32,0,0,1-10.19,23.7q-10.2,10-35.31,26.54-19.9,12.81-32.23,21.81Z"/><path d="M488.1,499.87s79.41,39.25,120.17,105.7L646.92,546c-74.67-37.91-129.43-107.65-129.43-107.65L488.1,462.89Z"/></svg>