<svg xmlns="http://www.w3.org/2000/svg" xmlns:xlink="http://www.w3.org/1999/xlink" width="101.572" height="58.582"><defs><linearGradient id="a" x1=".5" y1="1" x2=".5" gradientUnits="objectBoundingBox"><stop offset="0" stop-color="#e8505d"/><stop offset=".52" stop-color="#751a2b"/><stop offset="1" stop-color="#e8505d"/></linearGradient><linearGradient id="c" x1=".5" y1="1" x2=".5" y2="0" xlink:href="#a"/><linearGradient id="b" x1=".5" y1="1" x2=".5" gradientUnits="objectBoundingBox"><stop offset="0" stop-color="#e8505d"/><stop offset=".013" stop-color="#e44e5b"/><stop offset=".252" stop-color="#a83241"/><stop offset=".427" stop-color="#832031"/><stop offset=".52" stop-color="#751a2b"/><stop offset=".592" stop-color="#7c1d2e"/><stop offset=".702" stop-color="#912737"/><stop offset=".835" stop-color="#b43746"/><stop offset=".986" stop-color="#e34d5a"/><stop offset="1" stop-color="#e8505d"/></linearGradient><linearGradient id="d" x1=".5" y1="1" x2=".5" gradientUnits="objectBoundingBox"><stop offset=".022" stop-color="#751a2b"/><stop offset="1" stop-color="#e8505d"/></linearGradient><linearGradient id="e" x1="-.069" y1=".12" x2=".904" y2="1.052" gradientUnits="objectBoundingBox"><stop offset="0" stop-color="#e8505d"/><stop offset=".021" stop-color="#df4c59"/><stop offset=".125" stop-color="#b93a48"/><stop offset=".228" stop-color="#9b2c3b"/><stop offset=".329" stop-color="#862232"/><stop offset=".428" stop-color="#791c2c"/><stop offset=".52" stop-color="#751a2b"/><stop offset=".602" stop-color="#791c2c"/><stop offset=".694" stop-color="#862232"/><stop offset=".79" stop-color="#9d2c3c"/><stop offset=".889" stop-color="#bc3b49"/><stop offset=".99" stop-color="#e34d5b"/><stop offset="1" stop-color="#e8505d"/></linearGradient><linearGradient id="f" x1=".5" y1="1" x2=".5" y2="0" xlink:href="#b"/><linearGradient id="g" x1="-.066" y1=".203" x2=".987" y2=".902" gradientUnits="objectBoundingBox"><stop offset="0" stop-color="#e8505d"/><stop offset=".012" stop-color="#e44e5b"/><stop offset=".219" stop-color="#a83241"/><stop offset=".372" stop-color="#832031"/><stop offset=".453" stop-color="#751a2b"/><stop offset=".535" stop-color="#7c1d2e"/><stop offset=".66" stop-color="#912737"/><stop offset=".812" stop-color="#b43746"/><stop offset=".985" stop-color="#e34d5a"/><stop offset="1" stop-color="#e8505d"/></linearGradient></defs><g data-name="Group 579"><path data-name="Path 408" d="M3.067 38.083L.92 39.31l-.2-.153a6.021 6.021 0 001.431-4.192V8.537a17.672 17.672 0 00-.46-4.345 7.534 7.534 0 00-1.687-3.17l.205-.2a25.631 25.631 0 014.089 1.712A18.932 18.932 0 017.927 4.86q.357-.2 3.017-1.738v.205a5.944 5.944 0 00-1.636 4.14v.358L14.266.004v1.431a45.537 45.537 0 015.112 3.758 5.113 5.113 0 012.1 3.808v8.639a83.85 83.85 0 00-8.23 4.345 36.393 36.393 0 015.725 2.939q2.709 1.714 2.709 3.246v10.675q0 4.04 1.227 5.214l-.2.205a26.052 26.052 0 01-5.547-3.834q-2.633-2.351-2.632-4.141V25.815q0-1.533-3.016-2.607a9.428 9.428 0 00-2.2 2.2V38.29a10.1 10.1 0 00.562 3.45 7.453 7.453 0 001.227 2.326l-.205.205q-5.939-3.526-7.831-6.188zm9.713-17.278q1.43-1.021 1.533-1.124v-8.844a2.523 2.523 0 00-.741-1.763A17.145 17.145 0 0011.4 7.208l-2.1 3.527v12.729a20.883 20.883 0 013.48-2.659z" fill="#751a2b"/><path data-name="Path 409" d="M27.399 51.63a34.256 34.256 0 007.055-7.668l.2.153a11.034 11.034 0 00-.716 3.936 4.719 4.719 0 00.972 3.323l.971 1.074a5.284 5.284 0 002.147-4.6V32.92l-5.42 11.349-7.156-7.157.051-18.4a4.359 4.359 0 01.588-2.3 6 6 0 011.533-1.687 32.469 32.469 0 012.735-1.789q2.3-1.38 3.732-2.4l.2.205a8.327 8.327 0 00-1.636 5.112v17.732l2.454 2.2 2.914-5.776V18.245a3.462 3.462 0 011.048-2.632 22.656 22.656 0 013.553-2.531 40.325 40.325 0 003.987-2.556l.2.205a8.327 8.327 0 00-1.635 5.112v31.336a23.865 23.865 0 00-6.8 4.626 38.735 38.735 0 00-6.288 6.773z" fill="#751a2b"/><path data-name="Path 410" d="M52.754 40.972q-2.76-2.071-2.76-4.524V14.927a9.211 9.211 0 00-.333-2.607 3.218 3.218 0 00-1.3-1.79v-.2a11.264 11.264 0 002.914-1.559 15.709 15.709 0 003.348-3.246 12.971 12.971 0 002.326-4.7l.2.2v11.3l4.448-1.79.2.205a13.254 13.254 0 00-3.2 3.144 7.809 7.809 0 00-1.457 4.779v17.782a16.15 16.15 0 00.486 4.677 7.944 7.944 0 001.917 2.939l-.205.205a22.137 22.137 0 01-6.584-3.294z" fill="#751a2b"/><path data-name="Path 411" d="M62.518 37.265a2.471 2.471 0 01-1.227-1.84V19.732a3.16 3.16 0 01.537-1.815 4.305 4.305 0 011.406-1.3l10.07-6.084 6.032 9.866-10.888 9.406v2.761a2.188 2.188 0 001.124 1.635l5.266 3.936 3.424-3.731.921 1.176-7.259 8.69zm10.99-14.313l-4.6-7.821a.725.725 0 00-.46.716v11.45z" fill="#751a2b"/><path data-name="Path 412" d="M79.847 44.064a8.42 8.42 0 001.431-5.112V8.23a3.778 3.778 0 011.252-2.76 29.7 29.7 0 014.218-3.17q.561-.408 1.4-.945T90.065 0v.256a8.245 8.245 0 00-1.635 5.06v31.183a3.453 3.453 0 01-1.1 2.556 27.933 27.933 0 01-3.809 2.862q-2.146 1.38-3.476 2.352z" fill="#751a2b"/><path data-name="Path 413" d="M264.951 123.447a5.8 5.8 0 00-2.972-5.3 3.563 3.563 0 00-.709 2.134v30.722a8.42 8.42 0 01-1.431 5.112s5.112-5.253 5.112-8.311z" fill="url(#a)" transform="translate(-179.992 -112.055)"/><path data-name="Path 414" d="M268.427 148.554v-31.183a8.245 8.245 0 011.635-5.06s-5.111 4.8-5.111 11.693v23.463c0 1.714 1.494 2.585 2.892 3.026a3.394 3.394 0 00.584-1.939z" fill="url(#c)" transform="translate(-179.992 -112.055)"/><path data-name="Path 415" d="M91.348 44.064a8.413 8.413 0 001.431-5.112V8.23a3.775 3.775 0 011.253-2.76 29.62 29.62 0 014.217-3.17q.563-.408 1.406-.945T101.572 0v.256a8.246 8.246 0 00-1.636 5.06v31.183a3.453 3.453 0 01-1.1 2.556 27.868 27.868 0 01-3.809 2.862q-2.146 1.38-3.476 2.352z" fill="#751a2b"/><path data-name="Path 416" d="M276.452 123.447a5.8 5.8 0 00-2.971-5.3 3.564 3.564 0 00-.71 2.134v30.722a8.413 8.413 0 01-1.431 5.112s5.112-5.253 5.112-8.311z" fill="url(#c)" transform="translate(-179.992 -112.055)"/><path data-name="Path 417" d="M279.928 148.554v-31.183a8.246 8.246 0 011.636-5.06s-5.112 4.8-5.112 11.693v23.463c0 1.714 1.494 2.585 2.892 3.026a3.394 3.394 0 00.584-1.939z" fill="url(#a)" transform="translate(-179.992 -112.055)"/><path data-name="Path 418" d="M244.815 146.856V134.6c0-2.267-3.232-4.211-3.232-4.211a3.238 3.238 0 00-.3 1.4v15.691a2.471 2.471 0 001.227 1.84l9.406 7v-4.12z" fill="url(#b)" transform="translate(-179.992 -112.055)"/><path data-name="Path 419" d="M248.44 127.9s-3.625 4.3-3.625 7.069v11.885l3.625-1.7z" fill="url(#d)" transform="translate(-179.992 -112.055)"/><path data-name="Path 420" d="M253.3 122.585l-1.085 3.981 3.184 5.369 3.933.516z" fill="url(#e)" transform="translate(-179.992 -112.055)"/><path data-name="Path 421" d="M233.769 148.314v-21.747c0-2.928-5.419-3.982-5.419-3.982a3.218 3.218 0 011.3 1.79 9.211 9.211 0 01.333 2.607V148.5q0 2.452 2.76 4.524a22.137 22.137 0 006.594 3.3s-5.568-3.602-5.568-8.01z" fill="url(#b)" transform="translate(-179.992 -112.055)"/><path data-name="Path 422" d="M236.938 112.873a13.017 13.017 0 01-2.081 4.374v8.238l2.285-1.11v-11.3z" fill="url(#f)" transform="translate(-179.992 -112.055)"/><path data-name="Path 423" d="M214.613 152.12l-5.422-4.777v-16.416c0-4.006 5.1-8.137 5.1-8.137l-.2-.205q-1.433 1.024-3.732 2.4a32.469 32.469 0 00-2.735 1.789 6 6 0 00-1.533 1.687 4.359 4.359 0 00-.588 2.3l-.051 18.4 7.156 7.157z" fill="url(#b)" transform="translate(-179.992 -112.055)"/><path data-name="Path 424" d="M226.816 122.79s-5.212 4.113-5.212 8.121V156.5l3.577 2.737V127.9a8.327 8.327 0 011.635-5.11z" fill="url(#f)" transform="translate(-179.992 -112.055)"/><path data-name="Path 425" d="M185.809 121.017c0-3.79-5.817-7.94-5.817-7.94a7.534 7.534 0 011.687 3.17 17.672 17.672 0 01.46 4.345v26.428a6.021 6.021 0 01-1.431 4.192l.2.153 2.147-1.227q1.892 2.659 7.821 6.186s-5.071-5.373-5.071-9.931z" fill="url(#b)" transform="translate(-179.992 -112.055)"/><path data-name="Path 426" d="M193.309 116.269l-1.917 2.994a17.145 17.145 0 012.172 1.866 2.523 2.523 0 01.741 1.763v8.844l3.7-2.668V121.9c-.005-2.829-4.696-5.631-4.696-5.631z" fill="url(#b)" transform="translate(-179.992 -112.055)"/><path data-name="Path 427" d="M198 140.5c0-3.378-6.507-5.241-6.507-5.241q3.015 1.074 3.016 2.607v10.479q0 1.791 2.632 4.141a26.052 26.052 0 005.547 3.834S198 151.493 198 148.115z" fill="url(#b)" transform="translate(-179.992 -112.055)"/><path data-name="Path 428" d="M45.189 47.183s8.564 4.232 12.96 11.4l4.168-6.426c-8.053-4.088-13.959-11.61-13.959-11.61l-3.169 2.648z" fill="#751a2b"/><path data-name="Path 429" d="M238.192 165.826l4.117-1.615c-8.053-4.088-13.959-11.61-13.959-11.61l-.649 4.759s6.643 3.848 10.491 8.466z" fill="url(#g)" transform="translate(-179.992 -112.055)"/></g></svg>